<mxfile host="app.diagrams.net" modified="2023-12-21T04:49:49.716Z" agent="Mozilla/5.0 (X11; Ubuntu; Linux x86_64; rv:109.0) Gecko/20100101 Firefox/116.0" version="22.1.11" etag="zqPy6-R15OnDAEUDrWpH" type="github">
  <diagram name="第 1 页" id="c5FZtJs6mLwErsmeNLna">
    <mxGraphModel>
      <root>
        <mxCell id="0" />
        <mxCell id="1" parent="0" />
      </root>
    </mxGraphModel>
  </diagram>
</mxfile>
